HIERARCHY
ROOT Hips
{
  OFFSET -125.086 92.215 135.881
  CHANNELS 6 Xposition Yposition Zposition Zrotation Xrotation Yrotation
  JOINT LeftUpLeg
  {
    OFFSET 8.64259 1.95398 -2.38835
    CHANNELS 3 Zrotation Xrotation Yrotation
    JOINT LeftLeg
    {
      OFFSET 43.7702 0 0
      CHANNELS 3 Zrotation Xrotation Yrotation
      JOINT LeftFoot
      {
        OFFSET 40.6238 0 0
        CHANNELS 3 Zrotation Xrotation Yrotation
        JOINT LeftToeBase
        {
          OFFSET 12.7242 0 0
          CHANNELS 3 Zrotation Xrotation Yrotation
          End Site
          {
            OFFSET 0 0 0
          }
        }
      }
    }
  }
  JOINT RightUpLeg
  {
    OFFSET -8.2249 1.95398 -2.59336
    CHANNELS 3 Zrotation Xrotation Yrotation
    JOINT RightLeg
    {
      OFFSET 43.5653 0 0
      CHANNELS 3 Zrotation Xrotation Yrotation
      JOINT RightFoot
      {
        OFFSET 40.6238 0 0
        CHANNELS 3 Zrotation Xrotation Yrotation
        JOINT RightToeBase
        {
          OFFSET 12.7242 0 0
          CHANNELS 3 Zrotation Xrotation Yrotation
          End Site
          {
            OFFSET 0 0 0
          }
        }
      }
    }
  }
  JOINT Spine
  {
    OFFSET 0.165834 0.87714 6.61349
    CHANNELS 3 Zrotation Xrotation Yrotation
    JOINT Spine1
    {
      OFFSET 7.38963 1.71661e-005 0
      CHANNELS 3 Zrotation Xrotation Yrotation
      JOINT Spine2
      {
        OFFSET 11.9445 1.14441e-005 0
        CHANNELS 3 Zrotation Xrotation Yrotation
        JOINT Spine3
        {
          OFFSET 14.7254 4.19617e-005 0
          CHANNELS 3 Zrotation Xrotation Yrotation
          JOINT Spine4
          {
            OFFSET 10.9679 0 0
            CHANNELS 3 Zrotation Xrotation Yrotation
            JOINT RightShoulder
            {
              OFFSET 2.46616 -1.6653 3.69651
              CHANNELS 3 Zrotation Xrotation Yrotation
              JOINT RightArm
              {
                OFFSET 13.0012 0 0
                CHANNELS 3 Zrotation Xrotation Yrotation
                JOINT RightForeArm
                {
                  OFFSET 28.7848 1.52588e-005 0
                  CHANNELS 3 Zrotation Xrotation Yrotation
                  JOINT RightHand
                  {
                    OFFSET 26.5688 1.52588e-005 0
                    CHANNELS 3 Zrotation Xrotation Yrotation
                    End Site
                    {
                      OFFSET 0 0 0
                    }
                  }
                }
              }
            }
            JOINT LeftShoulder
            {
              OFFSET 2.38034 -1.29275 -3.7523
              CHANNELS 3 Zrotation Xrotation Yrotation
              JOINT LeftArm
              {
                OFFSET 16.3182 6.10352e-005 0
                CHANNELS 3 Zrotation Xrotation Yrotation
                JOINT LeftForeArm
                {
                  OFFSET 27.0901 0 0
                  CHANNELS 3 Zrotation Xrotation Yrotation
                  JOINT LeftHand
                  {
                    OFFSET 24.5451 1.52588e-005 0
                    CHANNELS 3 Zrotation Xrotation Yrotation
                    End Site
                    {
                      OFFSET 0 0 0
                    }
                  }
                }
              }
            }
            JOINT Neck
            {
              OFFSET 5.0226 -0.0266342 0
              CHANNELS 3 Zrotation Xrotation Yrotation
              JOINT Head
              {
                OFFSET 6.69363 2.86102e-005 0
                CHANNELS 3 Zrotation Xrotation Yrotation
                End Site
                {
                  OFFSET 0 0 0
                }
              }
            }
          }
        }
      }
    }
  }
}
MOTION
Frames:	16
Frame Time:	0.0416667
-310.217 94.7644 27.1548 93.6775 2.62739 91.2493 -175.006 -0.895913 90.152 -9.41566 11.9033 3.22413 58.6444 4.21335 8.44476 39.4975 -1.01418 4.62748 174.679 4.00631 88.6389 -18.7494 8.38766 0.288394 61.5427 1.15162 15.4668 33.0479 -0.73508 1.14691 -0.287183 7.27124 -90.2003 12.3305 -0.665796 -0.324583 0.659677 -0.679407 -0.294978 -21.8761 -0.537435 -0.509677 -1.86347 -0.537444 -0.509678 111.605 -51.9702 -67.833 30.8139 -3.34163 -12.4058 -3.48825 -40.1372 -17.8517 -15.2284 -1.23245 4.28978 -73.3296 -46.0169 104.061 -44.8315 -6.00353 -18.5585 17.4692 56.2311 -18.2888 2.77124 -0.171909 -6.18154 -5.67283 0.296063 -15.0599 -13.7655 -0.418121 23.2515 
-310.204 94.7542 27.2078 93.3185 2.12753 91.5546 -174.704 -0.398854 90.498 -9.7177 11.8658 3.11756 58.8457 4.21529 8.43404 39.5714 -1.02253 4.86783 175.04 4.16188 89.0533 -18.1608 8.33739 0.140338 61.2885 1.08922 15.5145 33.0935 -0.724299 0.863561 -0.228999 7.21922 -90.2453 12.4343 -0.571599 -0.424526 0.763383 -0.589738 -0.398958 -21.7718 -0.417595 -0.576686 -1.75917 -0.417626 -0.576693 111.469 -51.8156 -68.0117 31.0357 -3.26061 -12.2198 -2.22085 -38.4857 -16.3888 -15.031 -0.967594 2.33735 -73.3756 -46.2766 103.966 -44.3779 -5.78883 -18.6275 15.7244 55.7056 -16.7509 3.82557 -0.0225893 -3.08181 4.4862 0.61114 -11.2233 -29.1276 -0.64512 14.143 
-310.179 94.7577 27.2359 93.3717 1.88795 91.5516 -174.641 -0.716003 90.5311 -9.35265 12.3215 3.1071 58.6763 4.24978 8.76874 39.6373 -1.03504 5.36495 175.084 4.25629 89.074 -18.4811 8.2836 0.0814255 61.315 1.22963 15.8726 32.8201 -0.695593 1.05212 -0.222916 7.229 -90.2512 12.4147 -0.562041 -0.437457 0.74383 -0.580755 -0.412309 -21.7913 -0.404594 -0.586149 -1.77866 -0.40459 -0.586153 111.218 -51.6536 -68.3641 31.1849 -3.2008 -12.2709 -2.23422 -38.6332 -16.3246 -15.1734 -1.00132 2.52527 -73.0608 -46.4659 104.448 -44.1874 -5.78283 -18.7552 15.5668 55.8022 -16.6327 3.98567 -0.0167355 -3.04093 2.91241 0.780954 -11.4887 -26.9728 -0.474454 15.2195 
-310.131 94.772 27.2716 93.3061 1.86686 91.5357 -174.603 -0.87753 90.5587 -9.01959 12.7627 3.12273 58.5488 4.21114 8.85577 39.587 -1.04264 5.80755 175.111 4.23444 89.0989 -18.3582 8.48488 0.059648 61.4192 1.14177 15.7961 32.6671 -0.688041 1.28768 -0.209744 7.21986 -90.2528 12.433 -0.536802 -0.443336 0.762074 -0.55582 -0.419279 -21.773 -0.378741 -0.584167 -1.76034 -0.378766 -0.584177 111.395 -51.6373 -68.0918 31.0628 -3.21896 -12.2536 -2.26391 -38.4409 -16.4621 -15.2066 -1.00572 2.5419 -72.9955 -46.4379 104.555 -44.0813 -5.59145 -18.8671 15.1603 55.8833 -16.3134 3.91859 -0.0177788 -3.04553 2.15642 1.13831 -11.2199 -25.4355 -0.0266671 15.2366 
-310.133 94.7547 27.2485 93.5441 2.44438 91.2393 -175.038 -1.36896 90.165 -8.56755 13.1287 3.35345 58.2901 4.22405 9.08373 39.6135 -1.05039 6.14766 174.715 3.99796 88.6592 -18.4484 8.58387 0.279045 62.0036 0.98045 15.6434 31.7692 -0.579382 1.57342 -0.3291 7.288 -90.2753 12.2962 -0.784494 -0.461215 0.625463 -0.80405 -0.426237 -21.9103 -0.60962 -0.675658 -1.89764 -0.609624 -0.67567 110.418 -50.3066 -69.3662 32.3855 -3.06803 -12.3519 -2.85045 -39.1269 -16.6588 -15.0404 -0.996566 2.5585 -71.8976 -47.3172 106.193 -43.2757 -5.21175 -19.4522 14.5149 56.0026 -16.0915 3.66863 -0.0324074 -3.26824 3.63423 1.47176 -9.27346 -26.8426 0.163954 14.0446 
-310.125 94.7485 27.3404 93.2387 2.02022 91.4519 -174.776 -0.63892 90.4197 -9.24711 12.1068 3.16684 58.5212 4.14817 8.72045 39.8645 -1.03822 5.07181 174.812 4.28398 88.8977 -18.3324 8.15936 0.354088 61.37 1.20094 15.7126 32.9128 -0.688004 0.548705 -0.26261 7.26254 -90.2825 12.3472 -0.655972 -0.48972 0.676355 -0.676903 -0.460381 -21.8589 -0.478462 -0.664225 -1.84621 -0.478467 -0.66423 110.514 -50.6175 -69.2677 32.086 -3.22187 -12.3464 -2.81857 -38.8852 -16.7102 -14.4763 -0.936652 2.38221 -72.164 -47.1054 105.799 -43.3718 -5.1491 -19.5413 14.5867 56.4176 -16.0519 4.2885 0.0208842 -2.45679 3.66597 1.40583 -9.57552 -26.7078 0.153378 14.128 
-310.116 94.7663 27.3847 93.1593 2.15714 91.4402 -174.793 -0.255305 90.5194 -9.72726 11.1924 3.13073 58.7993 4.11242 7.98522 39.6533 -1.02058 4.56192 174.733 4.38565 88.8885 -18.4903 7.91131 0.456267 60.7233 1.66295 16.696 34.5177 -0.787657 -2.20193 -0.270382 7.26487 -90.254 12.3429 -0.657864 -0.432591 0.672045 -0.676279 -0.403222 -21.8634 -0.497417 -0.610305 -1.85073 -0.497455 -0.610315 110.892 -50.9642 -68.7446 31.8775 -3.32104 -12.4948 -2.6989 -38.8759 -16.763 -14.5687 -0.961657 2.53531 -72.8391 -46.572 104.788 -43.6799 -5.32291 -19.1821 15.3083 56.5846 -16.7737 3.04625 -0.0298026 -3.09961 4.0602 1.28962 -10.5296 -27.3733 0.0136838 14.782 
-310.112 94.7808 27.424 93.1058 2.02094 91.5503 -174.687 -0.0446813 90.5909 -9.91519 10.8035 3.10281 58.8764 4.03383 7.72214 39.8128 -1.01575 3.9723 174.712 4.37737 88.9998 -18.3741 7.51475 0.551565 60.7608 1.45519 15.9066 34.3073 -0.76424 -1.92699 -0.272279 7.27593 -90.2743 12.3205 -0.671222 -0.471911 0.649636 -0.691336 -0.441913 -21.8857 -0.498357 -0.651821 -1.87302 -0.498365 -0.651822 110.715 -50.9611 -69.0159 31.8454 -3.30437 -12.4169 -2.9077 -38.9616 -17.0327 -14.4298 -0.969889 2.6809 -72.4505 -46.7996 105.381 -43.187 -4.7444 -19.4119 13.6029 55.5134 -15.3582 3.94456 -0.0493898 -3.61077 3.5817 1.33628 -10.2023 -26.317 0.136295 14.6108 
-310.135 94.8093 27.404 93.1904 2.45955 91.3148 -174.933 -0.422151 90.3291 -9.32599 11.2116 3.18984 58.5458 4.02814 7.84796 39.5837 -1.01295 4.38358 174.407 4.19786 88.675 -18.2023 7.53886 0.713868 61.4219 1.02701 14.6508 32.6135 -0.717111 1.85646 -0.262123 7.33239 -90.186 12.2083 -0.609038 -0.303264 0.53748 -0.621795 -0.276169 -21.9982 -0.489738 -0.472284 -1.98555 -0.489752 -0.472292 111.758 -51.8518 -67.5808 31.2807 -3.56046 -12.5123 -2.9428 -38.3945 -17.4551 -14.4388 -0.965799 2.64124 -74.2194 -45.1245 102.705 -44.884 -5.0858 -18.6804 15.7353 55.4434 -17.0775 4.05084 0.0208982 -2.38444 4.41047 0.491027 -12.6546 -26.593 -0.594305 16.4092 
-310.243 94.8004 27.4719 92.7438 2.68217 91.3098 -175.042 -0.293785 90.3071 -8.67547 12.1531 3.24512 58.183 4.02124 8.28514 39.4653 -1.01658 4.80813 174.48 5.06398 88.8016 -18.9021 7.6524 0.777076 61.0273 1.41651 15.399 33.8157 -0.750433 -1.09593 -0.365898 7.29782 -90.1948 12.2773 -0.819537 -0.296625 0.6066 -0.831753 -0.260282 -21.9299 -0.692481 -0.529218 -1.91722 -0.692472 -0.529224 111.506 -52.2352 -68.0285 30.966 -3.4046 -12.432 -3.07445 -38.7828 -17.4928 -14.3769 -1.00366 2.99904 -73.7129 -46.0872 103.444 -43.2396 -4.75898 -18.7515 12.957 54.308 -14.8694 4.53798 0.0225943 -2.94905 4.59094 0.320273 -12.9654 -26.8599 -0.865018 17.0509 
-310.53 94.7679 27.7964 91.621 2.39193 91.1162 -175.366 1.02314 89.9895 -8.38533 11.5046 3.20283 57.8857 3.72098 7.92978 39.386 -1.00594 4.48007 174.64 7.52545 88.8234 -20.8879 6.43413 0.784128 59.6831 2.30724 17.3112 37.3392 -1.10837 -8.63887 -0.394366 7.27712 -90.2133 12.3185 -0.884921 -0.326129 0.647825 -0.898417 -0.286866 -21.8888 -0.746008 -0.577022 -1.87618 -0.745996 -0.577016 111.333 -51.566 -68.174 31.5973 -3.31116 -12.4391 -4.12961 -39.1172 -18.45 -13.0581 -0.859821 2.58527 -73.1123 -46.4543 104.369 -42.5512 -3.61138 -19.1387 9.58411 52.7834 -12.5597 -0.828088 -0.124054 -5.7939 6.11452 1.50637 -11.4368 -25.63 0.553197 16.1532 
-310.813 94.7157 28.311 90.6637 2.30153 91.224 -175.251 2.21805 90.5498 -8.4986 11.6855 3.11901 57.6397 3.4568 7.97023 39.7819 -1.02675 4.62375 174.614 8.7636 89.3485 -21.2391 5.28521 1.15192 61.59 0.516698 12.1582 33.7684 -0.812338 -0.678094 -0.337296 7.3687 -90.1368 12.1363 -0.735122 -0.191429 0.46557 -0.742841 -0.158892 -22.0708 -0.64362 -0.403527 -2.0582 -0.643625 -0.40353 112.791 -53.0971 -66.2633 30.8201 -3.62172 -12.7436 -3.39407 -36.8448 -18.6736 -14.6694 -0.912389 2.10609 -74.8818 -44.6445 101.663 -45.2431 -5.24486 -19.7644 15.561 57.6225 -16.0592 -3.44017 -0.0608757 -6.89024 8.97545 0.673297 -13.0286 -27.7657 0.191761 15.5648 
-310.876 94.6295 28.9265 90.3445 3.03533 91.1483 -175.355 3.19561 90.7293 -9.48063 11.6973 3.28671 57.9985 3.33118 7.22072 39.8682 -1.02345 4.23439 174.329 8.16812 89.741 -19.8753 5.34978 1.71188 63.8344 -1.70734 7.4662 30.6378 -0.704541 5.09838 -0.426109 7.51751 -90.1289 11.8385 -0.907839 -0.160237 0.167889 -0.914031 -0.120128 -22.3693 -0.817722 -0.425691 -2.35669 -0.817727 -0.425699 112.753 -53.0549 -66.3109 31.1222 -3.47025 -12.5792 -5.0717 -36.7705 -20.0419 -10.6533 -0.528146 0.608362 -75.1611 -44.6796 101.212 -45.2779 -5.55163 -20.7515 17.213 58.9615 -17.2554 -5.27075 -0.033218 -6.63472 7.5558 -0.0301221 -15.2341 -24.576 -0.597078 20.0059 
-310.457 94.6024 29.5313 89.1629 2.66908 90.8117 -175.512 3.33336 90.616 -7.88964 11.5265 3.21637 57.3779 3.37657 7.41207 40.0905 -1.04875 5.12557 174.627 9.87341 89.5794 -21.434 6.18976 1.40927 64.3371 -0.68437 11.3988 34.2396 -0.988598 2.81526 -0.394518 7.51069 -90.1203 11.8522 -0.840994 -0.14995 0.181471 -0.846787 -0.112792 -22.3555 -0.757055 -0.395783 -2.34282 -0.757074 -0.395792 112.439 -53.4444 -66.8507 30.4472 -2.78618 -11.4637 -5.75357 -37.0211 -20.8112 -10.7651 -0.663453 2.06078 -75.2476 -44.5417 101.079 -45.6203 -4.95254 -21.9205 16.1649 59.929 -15.9519 -3.71172 -0.0728171 -5.93775 6.45617 0.338775 -15.3391 -23.1259 -0.20748 20.6568 
-309.375 94.497 30.2867 88.5114 1.74003 90.942 -175.195 3.4172 91.146 -8.21235 11.0953 3.29841 57.6993 3.70988 7.85631 41.262 -1.10087 5.65923 174.792 9.68542 90.226 -21.1479 5.97091 1.56619 65.1881 -1.14559 11.6287 36.0637 -1.18482 1.56323 -0.41083 7.54398 -90.2415 11.7852 -0.930536 -0.38317 0.114572 -0.946507 -0.341849 -22.4221 -0.772367 -0.645134 -2.40949 -0.77235 -0.645131 111.372 -51.9362 -68.1811 31.2383 -1.69026 -11.5429 -4.83409 -38.1668 -18.4173 -12.0071 -0.781281 2.45983 -74.232 -45.774 102.636 -44.6178 -4.3301 -22.2001 15.3894 57.2998 -16.4498 -4.17581 -0.0608397 -6.13264 9.74212 -0.0436369 -15.169 -30.3202 -2.08527 22.6663 
-307.703 94.2648 31.1639 88.8594 0.913404 90.1507 -175.364 1.81561 90.7003 -7.99756 11.3373 3.31852 57.0643 4.9345 11.3499 45.5194 -1.23551 6.6223 174.744 9.8626 89.8904 -23.982 4.58669 1.29637 65.5883 -0.416564 12.791 37.1932 -1.29797 0.134833 -0.452195 7.61395 -90.2906 11.6439 -1.03568 -0.471424 -0.0267405 -1.05539 -0.425396 -22.5636 -0.846133 -0.760902 -2.55096 -0.84611 -0.760907 110.123 -50.8375 -69.9035 31.9347 0.297595 -10.4473 -4.89633 -39.1263 -16.8062 -12.4236 -0.78529 2.22989 -73.2583 -46.8783 104.101 -43.2345 -3.86124 -20.8373 16.5155 53.5069 -19.9625 -4.51735 -0.0538467 -6.24293 12.2229 -2.47318 -15.6971 -37.4281 -6.49348 25.8627 
